<?xml version="1.0" encoding="UTF-8"?>
<svg id="Layer_1" data-name="Layer 1" xmlns="http://www.w3.org/2000/svg" viewBox="0 0 124.14 118.66"
class-"logo">
  <defs>
    <style>
      .cls-1 {
        fill: #fff0d6;
      }
    </style>
  </defs>
  <path class="cls-1" d="M73.17,22.88c-3.51-2.13-10.7-4.25-14.66-2.55-1.69.72-2.14,2.79,0,3.08,1.5.21,3.69-.61,5.08-.2-2.41.07-4.7,1.42-3.81,2.78,1.06,1.63,5.26.49,6.02,1.27,0,0-1.28-.23-2.38.28-2.26,1.04-.42,3.2,2.36,3.44,2.11.18,4.03.69,6.06,1.52,1.5.62,4.53,2.57,5.59,3.76.13.16.23.2.17.45-2.6.58-4.31,3.29-5.56,5.46-2.08,3.64-4.07,10.47-7.61,12.67-2.93,1.82-6.78,1.47-7.27-2.54-.88-7.23,4.08-17.04-.86-23.06-6.93-8.45-15.02,2.34-18.11,8.88-3.85,8.14-5.45,19.05-4.14,27.96.27,1.78,1.21,7.01,3.98,6.16,2.04-.62,2.5-4.89,2.56-6.59.32,1.4,1.25,1.8,2.03,1.62,1.74-.4,2.59-4.53,2.44-5.82.73,1.78,2.37,1.46,3.27.15.68-.99.89-1.54.9-2.82,0-.19.4,1.45.46,1.63,1.17,3.62-1.52,6.19-3.58,8.57-9.66,11.17-5.13,23.24,7.77,28.75,10.96,4.68,23.44-.73,30.45-9.65,2.81-3.56,4.99-9.27,3.44-13.66-.62-1.74-2.62-2.81-3.86-.97-1.51,2.25-1.84,6.11-3.93,8.23-.03-.68.38-1.32.44-2.03.13-1.62-.45-2.97-2.3-2.47-2.2.58-4.78,6.54-6.69,8.03.52-1.67-.14-3.41-2.17-2.96-.44.1-2.12,1.35-2.51,1.72-.9.85-1.61,2.18-2.46,3-6.45,6.24-16.94,3.34-17.7-5.93-.34-4.13,3.45-8.91,7.64-9.24,6.13-.48,11.6,1.58,17.18-2.57,8.49-6.31-1.21-17.83,5.75-23.52,1.49-1.22,3.11-1.88,5.07-1.55,1.54.26,2.91,1.51,3.66,2.65.78,1.17,2.32,3.38,3.94,2.38.54-.34.73-1.14.73-1.75-.02-8.46-10.36-20.29-17.38-24.55ZM88.13,45.38c-1.07.37-1.58-1.38-2.14-2.1-1.09-1.43-1.84-3.08-.63-3.66,1.24-.6,2.02,1.17,2.5,2.2.49,1.04,1.32,3.2.26,3.56Z"/>
</svg>