<?xml version="1.0" encoding="UTF-8"?>
<svg id="Layer_1" xmlns="http://www.w3.org/2000/svg" version="1.1" viewBox="0 0 124.14 118.66">
  <!-- Generator: Adobe Illustrator 29.8.2, SVG Export Plug-In . SVG Version: 2.1.1 Build 3)  -->
  <defs>
    <style>
      .st0 {
        fill: #320000;
      }
    </style>
  </defs>
  <path class="st0" d="M78.18,6c-5.1-3.09-15.55-6.18-21.3-3.71-2.46,1.05-3.11,4.05,0,4.48,2.18.31,5.36-.89,7.38-.29-3.5.1-6.83,2.06-5.54,4.04,1.54,2.37,7.64.71,8.75,1.85,0,0-1.86-.33-3.46.41-3.28,1.51-.61,4.65,3.43,5,3.07.26,5.86,1,8.81,2.21,2.18.9,6.58,3.73,8.12,5.46.19.23.33.29.25.65-3.78.84-6.26,4.78-8.08,7.93-3.02,5.29-5.91,15.21-11.06,18.41-4.26,2.64-9.85,2.14-10.56-3.69-1.28-10.51,5.93-24.76-1.25-33.51-10.07-12.28-21.82,3.4-26.31,12.9-5.59,11.83-7.92,27.68-6.02,40.63.39,2.59,1.76,10.19,5.78,8.95,2.96-.9,3.63-7.11,3.72-9.58.46,2.03,1.82,2.62,2.95,2.35,2.53-.58,3.76-6.58,3.55-8.46,1.06,2.59,3.44,2.12,4.75.22.99-1.44,1.29-2.24,1.31-4.1,0-.28.58,2.11.67,2.37,1.7,5.26-2.21,8.99-5.2,12.45-14.04,16.23-7.45,33.77,11.29,41.77,15.93,6.8,34.06-1.06,44.24-14.02,4.08-5.17,7.25-13.47,5-19.85-.9-2.53-3.81-4.08-5.61-1.41-2.19,3.27-2.67,8.88-5.71,11.96-.04-.99.55-1.92.64-2.95.19-2.35-.65-4.32-3.34-3.59-3.2.84-6.95,9.5-9.72,11.67.76-2.43-.2-4.95-3.15-4.3-.64.15-3.08,1.96-3.65,2.5-1.31,1.24-2.34,3.17-3.57,4.36-9.37,9.07-24.61,4.85-25.72-8.62-.49-6,5.01-12.95,11.1-13.43,8.91-.7,16.86,2.3,24.96-3.73,12.34-9.17-1.76-25.91,8.35-34.18,2.17-1.77,4.52-2.73,7.37-2.25,2.24.38,4.23,2.19,5.32,3.85,1.13,1.7,3.37,4.91,5.72,3.46.78-.49,1.06-1.66,1.06-2.54-.03-12.29-15.05-29.48-25.25-35.67h-.01ZM99.92,38.7c-1.55.54-2.3-2.01-3.11-3.05-1.58-2.08-2.67-4.48-.92-5.32,1.8-.87,2.94,1.7,3.63,3.2.71,1.51,1.92,4.65.38,5.17h.01Z"/>
</svg>