<svg width="1152" height="260" viewBox="0 0 1152 260" fill="none" xmlns="http://www.w3.org/2000/svg">
<g clip-path="url(#clip0_354_2867)">
<path d="M287.485 64.124C290.873 64.124 293.663 63.0002 295.921 60.7526C298.18 58.5049 299.309 55.7284 299.309 52.3569C299.309 48.9855 298.18 46.0767 295.988 43.8952C293.796 41.7137 290.939 40.5898 287.485 40.5898C284.031 40.5898 281.308 41.7137 279.049 43.8952C276.791 46.0767 275.662 48.9194 275.662 52.3569C275.662 55.5962 276.791 58.3727 279.116 60.6865C281.441 63.0002 284.23 64.124 287.485 64.124Z" fill="#fff0d6"/>
<path d="M432.556 159.715C431.294 157.468 429.634 155.881 427.707 154.956C426.113 156.145 424.519 157.005 422.991 157.534C421.463 158.129 420.068 158.393 418.806 158.393C414.29 158.393 411.035 156.674 409.108 153.303C407.182 149.865 406.252 145.106 406.252 139.024V88.2532C403.794 87.46 401.204 87.0633 398.414 87.0633C396.886 87.0633 395.425 87.1955 394.03 87.3938C392.635 87.6583 391.44 87.9227 390.377 88.2532V95.3928C387.72 92.7485 384.399 90.6331 380.479 89.0465C376.56 87.46 372.509 86.7328 368.457 86.7328C360.818 86.7328 353.976 88.716 347.998 92.6163C342.02 96.5167 337.304 101.937 333.783 108.747C330.329 115.556 328.536 123.356 328.536 132.148C328.536 133.735 328.536 135.388 328.735 136.974C326.211 143.585 323.022 148.808 319.236 152.642C315.45 156.542 311.597 158.459 307.678 158.459C303.161 158.459 299.907 156.74 298.047 153.369C296.12 149.931 295.19 145.172 295.19 139.09V89.1787C292.666 88.3855 290.009 87.9888 287.352 87.9888C285.825 87.9888 284.363 88.121 282.968 88.3193C281.573 88.5838 280.378 88.8482 279.315 89.1787V120.381C278.983 125.604 278.119 130.694 276.791 135.784C275.462 140.875 273.337 145.37 270.414 149.336C267.956 152.443 265.366 154.757 262.576 156.278C259.786 157.798 257.196 158.525 254.738 158.525C251.483 158.525 248.361 157.732 245.239 156.212C243.778 155.484 242.516 154.493 241.519 153.237C235.408 145.37 222.921 139.817 215.348 137.503V110.664C223.12 107.557 230.028 103.061 236.073 97.1116C242.117 91.2281 246.833 84.0224 250.287 75.4284C253.742 66.9006 255.402 57.2489 255.402 46.4734C255.402 31.6654 252.944 20.2288 248.095 12.1637C243.246 4.09865 236.272 0 227.172 0C222.19 0 218.005 0.991609 214.75 2.97483C211.429 4.95805 208.772 7.47012 206.647 10.5772C204.122 14.2792 202.329 18.7084 201.333 23.8647C200.336 29.0211 199.871 34.7063 199.871 40.9204V100.549C195.022 102.07 190.173 103.193 185.524 103.987C181.605 104.648 177.686 105.044 173.766 105.177C170.379 99.8881 166.061 95.5912 160.681 92.2858C154.503 88.5177 147.529 86.6667 139.757 86.6667C131.985 86.6667 125.011 88.5177 118.767 92.2858C112.523 96.0539 107.674 101.144 104.021 107.623C102.427 110.531 101.164 113.572 100.301 116.812C93.725 117.737 87.4146 120.117 81.2371 123.422C80.1079 120.381 78.5137 117.539 76.521 114.961C71.8713 109.011 65.4281 104.912 57.1915 102.731L36.6663 97.1777C24.7099 93.8063 18.7317 87.5261 18.7317 78.271C18.7317 72.5197 20.9901 67.76 25.507 64.1241C30.0239 60.4882 35.8692 58.6372 43.1095 58.6372C55.3316 58.6372 64.2325 63.5291 69.945 73.3791C72.7348 72.4536 75.3254 71.1314 77.7167 69.2804C80.1079 67.4955 81.835 65.6445 82.8313 63.7935C79.9087 57.6456 74.9268 52.7536 67.753 48.9855C60.5791 45.2174 52.5418 43.3664 43.6409 43.3664C35.6035 43.3664 28.4961 44.8869 22.3186 47.9278C16.0747 50.9687 11.2257 55.2657 7.70524 60.6865C4.18474 66.1073 2.39128 72.3214 2.39128 79.2626C2.39128 86.9972 4.71614 93.674 9.36585 99.2932C14.0156 104.912 20.3923 108.879 28.4961 111.192L51.6783 117.605C62.0405 120.514 67.1552 126.86 67.1552 136.644C67.1552 143.122 64.8967 148.213 60.3799 151.981C55.863 155.749 49.8848 157.666 42.4452 157.798C35.4707 157.93 29.5589 156.344 24.7099 153.104C19.8609 149.865 16.3404 145.106 14.2813 138.891C11.7571 138.693 9.03373 139.222 6.17748 140.544C3.32122 141.866 1.26207 143.651 0 145.833C2.32486 154.03 7.041 160.575 14.082 165.533C21.1894 170.425 30.356 172.937 41.5817 173.069C49.6191 173.069 56.7929 171.615 63.1033 168.64C69.4136 165.665 74.3954 161.434 78.0488 155.881C81.4364 150.725 83.2299 144.775 83.4956 138.032C88.3446 134.859 93.3928 132.545 98.7068 131.091C98.9061 138.825 100.633 145.833 103.954 152.047C107.475 158.658 112.39 163.814 118.568 167.582C124.745 171.35 131.853 173.201 139.757 173.201C147.662 173.201 154.636 171.35 160.747 167.582C166.858 163.814 171.641 158.658 175.228 152.047C178.748 145.436 180.542 138.032 180.542 129.703C180.542 125.802 180.143 122.1 179.346 118.596C181.671 118.398 184.195 118.134 186.786 117.737C191.303 117.076 195.687 116.151 199.871 115.159V219.476C199.871 232.037 201.997 241.953 206.314 249.092C210.632 256.232 217.607 259.868 227.371 259.868C237.135 259.868 244.376 255.967 249.424 248.233C254.472 240.498 256.996 229.062 256.996 213.923C256.996 206.321 256.531 199.049 255.535 192.174C254.539 185.299 253.144 178.952 251.284 173.201H253.542C258.325 173.201 262.709 172.276 266.894 170.425C271.012 168.574 274.665 166.062 277.787 162.954C279.647 161.103 281.374 158.856 283.035 156.212C286.622 167.516 294.46 173.201 306.549 173.201C318.24 173.201 327.738 167.648 334.912 156.542C338.167 161.765 342.352 165.797 347.533 168.772C352.714 171.747 358.626 173.201 365.401 173.201C371.579 173.201 377.158 171.813 382.207 169.102C387.255 166.392 391.44 162.69 394.827 157.93C398.68 168.111 406.252 173.201 417.611 173.201H417.81C421.198 173.201 424.32 172.54 427.242 171.284C430.165 170.028 432.556 168.309 434.416 166.26C434.549 164.078 433.951 161.831 432.689 159.583L432.556 159.715ZM215.415 37.2845C215.415 22.0137 219.334 14.4114 227.238 14.4114C231.423 14.4114 234.611 17.1218 236.737 22.5426C238.862 27.9634 239.992 35.8963 239.992 46.2751C239.992 57.9761 237.667 68.0244 233.084 76.4861C228.5 84.9479 222.588 91.2281 215.415 95.2606V37.2845ZM157.492 150.592C153.042 155.815 147.064 158.393 139.624 158.393C132.185 158.393 126.273 155.815 121.756 150.592C117.306 145.37 115.047 138.561 115.047 130.165C115.047 123.687 116.376 118.134 119.033 113.44C121.69 108.747 125.343 105.441 129.993 103.458C138.495 100.748 144.34 101.012 149.986 103.524C155.633 106.036 158.887 109.077 162.209 118.002C163.537 121.571 164.135 125.538 164.135 129.769C164.135 138.429 161.876 145.37 157.426 150.592H157.492ZM238.198 237.325C235.873 242.944 232.552 245.721 228.301 245.721C223.651 245.721 220.33 243.539 218.404 239.11C216.411 234.747 215.415 228.202 215.415 219.542V156.079C219.533 156.542 222.721 158.393 226.043 160.575C229.364 162.756 231.356 164.078 234.213 168.706C239.195 179.812 241.719 194.488 241.719 212.733C241.719 223.509 240.523 231.64 238.265 237.259L238.198 237.325ZM390.443 131.355C390.443 139.42 388.185 145.965 383.734 150.923C379.284 155.881 373.372 158.393 366.065 158.393C359.423 158.393 354.242 156.079 350.456 151.386C346.669 146.692 344.81 140.28 344.81 132.082C344.81 126.199 345.939 120.976 348.131 116.415C350.323 111.854 353.378 108.218 357.164 105.573C361.017 102.929 365.401 101.607 370.383 101.607C374.236 101.607 377.955 102.532 381.542 104.45C385.129 106.367 388.118 108.879 390.443 111.986V131.421V131.355Z" fill="#fff0d6"/>
<path d="M702.904 64.9834C706.291 64.9834 709.081 63.8596 711.34 61.6119C713.598 59.3643 714.727 56.5878 714.727 53.2163C714.727 49.8448 713.598 46.9361 711.406 44.7546C709.214 42.573 706.358 41.4492 702.904 41.4492C699.45 41.4492 696.726 42.573 694.468 44.7546C692.209 46.9361 691.08 49.7787 691.08 53.2163C691.08 56.4556 692.209 59.2321 694.534 61.5458C696.859 63.8596 699.649 64.9834 702.904 64.9834Z" fill="#fff0d6"/>
<path d="M1146.69 108.482C1143.17 102.003 1138.32 96.9132 1132.14 93.1451C1125.96 89.377 1118.99 87.526 1111.22 87.526C1103.44 87.526 1096.47 89.377 1090.23 93.1451C1083.98 96.9132 1079.13 102.003 1075.48 108.482C1071.89 114.961 1070.1 122.365 1070.1 130.694C1070.1 133.603 1070.3 136.445 1070.76 139.156C1068.24 145.304 1065.12 150.13 1061.46 153.832C1057.81 157.468 1054.09 159.319 1050.24 159.319C1044.66 159.319 1039.41 156.476 1034.36 150.857L1028.58 144.246C1026.59 142.065 1024.46 140.147 1022.14 138.495C1029.31 136.181 1035.09 132.743 1039.41 128.116C1043.73 123.488 1045.85 118.2 1045.85 112.184C1045.85 104.78 1043.59 98.8303 1039.08 94.335C1034.56 89.8397 1028.52 87.5921 1020.94 87.5921C1019.22 87.5921 1017.49 87.7243 1015.9 87.9226C1020.41 79.1304 1024 70.1398 1026.59 60.8848C1029.18 51.6297 1030.51 43.168 1030.51 35.4334C1030.51 25.2529 1028.12 16.9895 1023.27 10.6432C1018.42 4.29691 1011.78 1.05765 1003.14 0.925435C993.71 0.793221 986.536 3.90026 981.621 10.1143C976.706 16.3284 974.248 25.2529 974.248 36.8217V129.57C968.469 140.346 963.221 147.948 958.505 152.509C953.856 157.071 948.94 159.319 943.892 159.319C940.239 159.319 937.581 157.93 935.921 155.154C934.26 152.377 933.397 147.816 933.397 141.47V121.175C933.397 110.531 930.939 102.268 926.024 96.3844C921.108 90.5008 914.067 87.526 905.034 87.526C898.79 87.526 893.077 88.9804 887.962 91.9552C882.848 94.93 878.663 99.0948 875.408 104.516C874.013 99.2931 871.489 95.1944 867.902 92.1535C864.315 89.1126 859.865 87.5921 854.684 87.5921C848.971 87.5921 843.989 89.377 839.738 92.8807C835.421 96.3844 830.904 102.797 826.121 112.052L816.357 130.958C811.043 141.47 805.795 148.874 800.747 153.171C795.699 157.468 789.654 159.583 782.547 159.583C776.303 159.583 771.255 158.261 767.601 155.617C777.963 148.477 785.27 141.8 789.654 135.652C794.038 129.504 796.164 122.761 796.164 115.357C796.164 109.936 795.035 105.111 792.843 100.946C790.651 96.781 787.529 93.5418 783.61 91.1619C779.691 88.782 775.107 87.5921 769.993 87.5921C763.948 87.5921 758.568 89.1787 753.785 92.3518C749.002 95.525 745.283 99.8881 742.626 105.375C739.969 110.862 738.64 117.208 738.64 124.348C738.64 134.991 740.899 144.246 745.415 152.047C740.766 154.691 736.714 156.608 733.193 157.666C729.739 158.79 726.285 159.319 722.898 159.319C718.381 159.319 715.126 157.6 713.266 154.228C711.34 150.791 710.41 146.031 710.41 139.949V90.0381C707.886 89.2448 705.229 88.8481 702.572 88.8481C701.044 88.8481 699.583 88.9803 698.188 89.1787C696.793 89.4431 695.597 89.7075 694.534 90.0381V121.241C694.202 126.463 693.339 131.553 692.01 136.644C690.682 141.734 688.556 146.229 685.633 150.196C683.176 153.303 680.585 155.617 677.795 157.137C675.005 158.657 672.415 159.385 669.957 159.385C666.237 159.385 663.514 157.996 661.853 155.22C660.193 152.443 659.329 147.882 659.329 141.536V89.1787C656.872 88.3854 654.281 87.9887 651.491 87.9887C649.963 87.9887 648.502 88.121 647.107 88.3193C645.712 88.5837 644.517 88.8481 643.454 89.1787V96.3183C640.797 93.674 637.476 91.5585 633.557 89.972C629.638 88.3854 625.586 87.6582 621.534 87.6582C613.895 87.6582 607.053 89.6414 601.075 93.5418C595.097 97.4421 590.381 102.863 586.86 109.672C583.406 116.481 581.613 124.282 581.613 133.074C581.613 135.983 581.812 138.693 582.21 141.337C577.428 146.097 571.184 149.997 564.475 153.104C566.667 148.477 567.796 143.321 567.796 137.569C567.796 129.107 565.471 121.968 560.822 116.018C556.172 110.069 549.729 105.97 541.492 103.788L520.967 98.2354C509.011 94.8639 503.032 88.5837 503.032 79.3287C503.032 73.5774 505.291 68.8176 509.808 65.1817C514.325 61.5458 520.17 59.6948 527.41 59.6948C539.632 59.6948 548.533 64.5868 554.246 74.4367C557.036 73.5112 559.626 72.1891 562.017 70.3381C564.409 68.5532 566.136 66.7022 567.132 64.8512C564.209 58.7032 559.228 53.8113 552.054 50.0432C544.88 46.275 536.843 44.424 527.942 44.424C519.904 44.424 512.797 45.9445 506.619 48.9854C500.375 52.0264 495.526 56.3234 492.006 61.7441C488.485 67.1649 486.692 73.379 486.692 80.3203C486.692 88.0548 489.017 94.7317 493.667 100.351C498.316 105.97 504.693 109.936 512.797 112.25L535.979 118.663C546.341 121.571 551.456 127.918 551.456 137.701C551.456 144.18 549.197 149.27 544.681 153.038C540.164 156.806 534.186 158.724 526.746 158.856C519.771 158.988 513.86 157.401 509.011 154.162C504.162 150.923 500.641 146.163 498.582 139.949C496.058 139.751 493.334 140.28 490.478 141.602C487.622 142.924 485.563 144.709 484.301 146.89C486.626 155.088 491.342 161.632 498.383 166.59C505.49 171.482 514.657 173.994 525.882 174.127C529.204 174.127 532.392 173.862 535.448 173.333C548.998 172.672 573.177 166.59 586.86 155.617C589.916 161.302 593.968 165.797 599.149 169.102C604.662 172.54 611.105 174.325 618.412 174.325C624.191 174.325 629.505 173.135 634.287 170.755C639.07 168.375 643.122 165.07 646.509 160.773C650.362 169.763 657.802 174.325 668.828 174.325C673.611 174.325 677.995 173.399 682.179 171.548C686.298 169.697 689.951 167.185 693.073 164.078C694.933 162.227 696.66 159.98 698.32 157.335C701.907 168.64 709.745 174.325 721.835 174.325C732.064 174.325 742.758 170.887 753.851 163.946C757.106 167.185 761.158 169.697 766.073 171.548C770.856 173.333 776.037 174.259 781.484 174.325C781.484 174.325 781.484 174.325 781.55 174.325C781.617 174.325 781.55 174.325 781.617 174.325C781.617 174.325 781.617 174.325 781.683 174.325C781.683 174.325 781.75 174.325 781.816 174.325C791.78 174.325 800.415 171.747 807.722 166.59C815.095 161.434 821.538 153.567 827.118 142.924L839.14 119.852C842.13 113.969 844.654 109.606 846.713 106.763C848.772 103.921 850.898 102.532 853.222 102.532C856.212 102.532 858.337 103.722 859.466 106.168C860.596 108.614 861.193 112.052 861.193 116.547V171.813C863.651 172.606 866.242 173.003 869.031 173.003C870.294 173.003 871.622 172.871 873.017 172.672C874.412 172.408 875.674 172.143 876.87 171.813V150.328C876.87 140.875 877.932 132.545 880.058 125.339C882.184 118.2 885.239 112.581 889.092 108.548C893.011 104.516 897.461 102.466 902.576 102.466C912.473 102.466 917.388 108.68 917.388 121.175V143.387C917.388 163.946 925.824 174.259 942.63 174.259C949.007 174.259 954.653 173.003 959.634 170.557C964.55 168.045 969.399 163.748 974.181 157.666V171.879C976.971 172.672 979.695 173.069 982.352 173.069C983.614 173.069 984.942 172.937 986.337 172.738C987.732 172.474 988.994 172.209 990.19 171.879V149.204C990.19 147.353 990.19 145.502 990.389 143.651C995.504 143.651 999.622 143.982 1002.81 144.577C1006 145.238 1008.79 146.361 1011.25 148.014C1013.7 149.667 1016.29 152.047 1019.08 155.022L1026.39 162.822C1029.85 166.392 1033.5 169.235 1037.28 171.218C1041.07 173.267 1044.86 174.259 1048.71 174.259C1048.71 174.259 1048.78 174.259 1048.84 174.259C1060.8 174.259 1070.36 168.507 1077.6 157.071C1081.32 162.359 1086.04 166.59 1091.82 169.631C1097.6 172.672 1103.97 174.193 1111.08 174.193C1118.99 174.193 1125.96 172.342 1132.07 168.574C1138.18 164.805 1142.97 159.649 1146.55 153.038C1150.07 146.428 1151.87 139.024 1151.87 130.694C1151.87 122.365 1150.07 114.961 1146.55 108.482H1146.69ZM643.653 132.215C643.653 140.28 641.395 146.824 636.944 151.782C632.494 156.74 626.582 159.252 619.275 159.252C612.633 159.252 607.452 156.939 603.666 152.245C599.879 147.551 598.019 141.139 598.019 132.942C598.019 127.058 599.149 121.836 601.341 117.274C603.533 112.713 606.588 109.077 610.374 106.433C614.227 103.788 618.611 102.466 623.593 102.466C627.446 102.466 631.165 103.392 634.752 105.309C638.339 107.226 641.328 109.738 643.653 112.845V132.281V132.215ZM758.767 144.709C755.512 139.288 753.918 132.016 753.918 122.893C753.918 117.01 755.379 112.052 758.368 108.019C761.357 103.987 765.077 101.937 769.594 101.937C773.181 101.937 776.037 103.127 778.03 105.507C780.089 107.887 781.085 111.126 781.085 115.291C781.085 119.786 779.226 124.546 775.572 129.504C771.919 134.462 766.339 139.552 758.767 144.775V144.709ZM989.858 103.458V36.5573C989.858 22.3442 994.109 15.2707 1002.54 15.2707C1006.6 15.2707 1009.72 16.9895 1011.84 20.361C1013.97 23.7986 1015.03 28.6905 1015.03 35.169C1015.03 41.6475 1014.04 48.3244 1011.98 55.8606C1009.92 63.4629 1007.06 71.2636 1003.28 79.3287C999.489 87.3938 994.972 95.4589 989.791 103.392L989.858 103.458ZM1015.3 128.711C1010.52 130.297 1005.14 131.157 999.091 131.157C996.567 131.157 994.242 131.025 992.315 130.826C994.308 121.902 997.563 114.762 1002.15 109.341C1006.73 103.921 1012.11 101.21 1018.29 101.21C1022.01 101.21 1025 102.268 1027.25 104.383C1029.51 106.499 1030.64 109.341 1030.64 112.779C1030.64 116.217 1029.25 119.39 1026.52 122.166C1023.8 124.943 1020.08 127.124 1015.3 128.777V128.711ZM1128.95 151.452C1124.5 156.674 1118.52 159.252 1111.08 159.252C1103.64 159.252 1097.73 156.674 1093.21 151.452C1088.76 146.229 1086.51 139.42 1086.51 131.025C1086.51 122.629 1088.76 115.555 1093.41 110.333C1098 105.111 1103.97 102.466 1111.28 102.466C1118.59 102.466 1124.5 105.044 1128.95 110.267C1133.4 115.489 1135.66 122.298 1135.66 130.694C1135.66 139.09 1133.4 146.295 1128.95 151.518V151.452Z" fill="#fff0d6"/>
</g>
<defs>
<clipPath id="clip0_354_2867">
<rect width="1152" height="260" fill="white"/>
</clipPath>
</defs>
</svg>
